<svg xmlns="http://www.w3.org/2000/svg" xmlns:xlink="http://www.w3.org/1999/xlink" width="2000" zoomAndPan="magnify" viewBox="0 0 1500 1499.999933" height="2000" preserveAspectRatio="xMidYMid meet" version="1.0"><defs><clipPath id="22bc043fdb"><path d="M 150 358.5 L 1350 358.5 L 1350 1141.5 L 150 1141.5 Z M 150 358.5 " clip-rule="nonzero"/></clipPath></defs><g clip-path="url(#22bc043fdb)"><path fill="#603c77" d="M 911.929688 914.84375 C 942.808594 918.632812 956 950.980469 976.25 970.214844 C 1021.921875 1013.59375 1107.613281 1025.144531 1163.839844 997.171875 C 1194.070312 982.132812 1267.671875 936.019531 1288.335938 911.363281 C 1299.945312 897.511719 1302.910156 879.722656 1326.667969 889.710938 C 1346.152344 897.90625 1351.304688 906.789062 1349.089844 927.820312 C 1338.941406 1024.265625 1215.347656 1072.125 1133.652344 1085.953125 C 1068.324219 1097.007812 1024.734375 1095.257812 964.03125 1066.792969 C 933.148438 1052.308594 912.128906 1017.914062 877.324219 1004.078125 C 874.792969 1003.074219 860.449219 998.234375 858.929688 998.234375 C 849.730469 998.234375 839.929688 1014.878906 833.765625 1021.367188 C 704.125 1157.863281 522.242188 1170.996094 354.660156 1096.28125 C 216.285156 1034.582031 145.230469 932.550781 150.714844 778.554688 C 155.996094 630.554688 205.238281 526.804688 326.097656 440.707031 C 394.609375 391.902344 545.839844 344.59375 628.246094 362.292969 C 634.574219 363.652344 643.398438 367.75 648.398438 368.457031 C 655.113281 369.40625 662.355469 366.429688 670.300781 367.300781 C 706.960938 371.339844 767.429688 407.726562 796.347656 430.804688 C 841.34375 466.714844 889.726562 508.957031 922.757812 556.199219 C 995.695312 660.527344 974.523438 774.597656 926.027344 883.976562 C 924.175781 888.152344 910.292969 913.160156 911.9375 914.84375 Z M 629.40625 381.191406 C 626.109375 379.070312 553.625 381.863281 551.320312 385.027344 C 548.535156 390.699219 561.097656 430.722656 563.878906 430.742188 C 572.730469 422.265625 581.539062 413.109375 590.84375 405.164062 C 598.199219 398.886719 612.550781 385.316406 621.988281 385.003906 C 625.832031 384.875 631.570312 385.367188 632.40625 389.988281 C 634.171875 399.691406 628.546875 396.285156 623.695312 397.882812 C 616.117188 400.378906 574.640625 443.539062 567.378906 452.246094 C 551.527344 471.246094 538.847656 494.632812 523.710938 512.339844 C 469.191406 576.113281 422.351562 679.195312 396.746094 758.882812 C 377.46875 818.878906 360.289062 893.207031 353 955.820312 C 350.140625 980.402344 348.445312 1032.707031 351.378906 1056.683594 C 351.996094 1061.738281 353.207031 1061.761719 358.359375 1061.460938 C 357.761719 1051.433594 358.714844 1041.839844 359.976562 1031.949219 C 382.433594 855.917969 446.980469 632.625 565.246094 497.132812 C 594.125 464.046875 632.199219 420.355469 671.578125 401.429688 C 673.214844 400.640625 676.480469 400.5 676.671875 400.324219 C 679.207031 397.988281 675.6875 397.972656 674.699219 397.449219 C 664.296875 391.949219 638.8125 394.597656 631.722656 386.453125 C 630.414062 384.949219 629.980469 381.554688 629.410156 381.183594 Z M 535.507812 387.882812 L 478.667969 399.78125 C 483.496094 425.300781 497.183594 452.953125 512.242188 474.070312 C 514.207031 476.824219 517.890625 482.972656 521.007812 483.402344 L 556.3125 438.375 C 553.445312 433.335938 549.265625 430.210938 546 425.121094 C 538.738281 413.8125 536.472656 401.148438 535.507812 387.878906 Z M 463.433594 404.609375 C 461.058594 402.605469 435.867188 412.726562 431.367188 414.519531 C 425.792969 416.738281 414.980469 420.046875 410.542969 422.746094 C 405.503906 425.8125 412.898438 436.398438 415.375 440.875 C 430.429688 468.0625 456.585938 505.238281 478.054688 527.605469 C 479.246094 528.847656 483.84375 534.339844 485.660156 533.109375 C 487.492188 525.582031 510.476562 503.726562 509.03125 498.136719 C 486.996094 471.761719 468.148438 439.050781 463.433594 404.613281 Z M 733.402344 422.488281 C 719.449219 417.800781 708.066406 407.066406 693.285156 404.480469 C 693.140625 418.933594 672.589844 424.066406 662.363281 430.992188 C 652.441406 437.703125 640.035156 450.816406 631.675781 459.792969 C 481.445312 621.109375 431.710938 782.894531 389.769531 995.324219 C 386.878906 1009.957031 381.921875 1024.285156 379.5625 1039.070312 C 377.867188 1049.679688 377.398438 1060.304688 376.519531 1070.976562 C 380.238281 1071.316406 396.480469 1080.023438 398.496094 1078.050781 C 397.308594 1057.167969 399.632812 1037.585938 403.300781 1017.144531 C 431.863281 857.917969 521.707031 666.925781 624.117188 542.136719 C 654.160156 505.53125 685.3125 469.292969 716.15625 433.570312 L 733.40625 422.480469 Z M 794.296875 469.476562 C 795.539062 467.839844 791.273438 464.28125 790.167969 463.253906 C 781.59375 455.316406 754.066406 432.757812 744.421875 428.726562 C 739.160156 426.523438 740.929688 429.472656 738.328125 432.171875 C 716.28125 455.066406 703.382812 474.285156 684.160156 498.417969 C 640.667969 553.027344 599.476562 599.78125 565.226562 661.710938 C 499.835938 779.964844 434.59375 931.078125 422.003906 1066.273438 C 421.695312 1069.574219 418.292969 1085.023438 419.347656 1086.253906 L 455.226562 1094.648438 C 453.527344 1055.476562 461.105469 1016.304688 469.5 978.203125 C 500.007812 839.742188 581.425781 689.976562 671.796875 581.496094 C 679.003906 572.84375 695.292969 558.554688 700.277344 550.46875 C 701.628906 548.28125 701.1875 545.304688 701.871094 544.472656 C 702.324219 543.921875 705.402344 543.78125 707.179688 542.199219 C 724.683594 526.617188 740.402344 505.894531 759.042969 490.273438 C 769.089844 481.851562 782.007812 474.0625 794.289062 469.46875 Z M 394.339844 430.769531 C 392.96875 429.347656 362.792969 446.898438 359.324219 449.019531 C 355.542969 451.324219 335.898438 462.773438 336.394531 465.78125 C 348.652344 487.929688 363.554688 508.230469 379.792969 527.609375 C 393.414062 543.851562 412.8125 566.394531 429.085938 579.308594 C 431.855469 581.507812 447.808594 593.96875 449.679688 592.59375 C 452.382812 586.421875 455.78125 579.488281 459.148438 573.6875 C 461.875 568.996094 474.078125 551.476562 473.320312 547.882812 C 473.113281 546.90625 459.761719 538.042969 457.347656 535.851562 C 438.402344 518.667969 405.757812 466.78125 397.09375 442.550781 C 395.730469 438.742188 394.15625 434.945312 394.335938 430.777344 Z M 329.296875 472.261719 L 325.148438 472.953125 L 287.691406 506.054688 L 286.324219 508.984375 C 286.019531 512.671875 300.527344 532.859375 303.8125 537.15625 C 324.105469 563.683594 350.089844 592.320312 377.28125 611.722656 C 391.738281 622.039062 408.847656 629.414062 421.332031 642.355469 L 441.296875 605.867188 C 413.371094 588.875 386.667969 565.480469 365.324219 540.683594 C 349.527344 522.332031 330.515625 497.152344 329.292969 472.261719 Z M 918.851562 605.03125 C 899.429688 566.691406 867.8125 530.613281 835.84375 501.980469 C 832.882812 499.328125 812.128906 482.257812 810.519531 482.242188 C 800.929688 482.160156 780.410156 496.351562 772.890625 502.722656 C 765.804688 508.730469 738.898438 534.230469 734.730469 540.65625 C 733.628906 542.351562 733.019531 543.402344 733.417969 545.554688 C 748.402344 545.566406 763.347656 546.128906 778.199219 543.988281 C 799.21875 540.960938 825.363281 529.28125 844.804688 527.566406 C 853.03125 526.84375 861.074219 530.894531 854.605469 538.75 C 847.140625 547.8125 795.496094 561.609375 782.367188 563.359375 C 760.703125 566.253906 739.210938 564.589844 717.808594 560.992188 C 715.535156 561.628906 690.554688 592.375 687.1875 596.875 C 685.324219 599.363281 676.359375 609.9375 678.046875 611.933594 C 691.15625 613.757812 703.644531 618.527344 716.535156 621.199219 C 753.671875 628.890625 798.527344 629.707031 836.125 624.011719 C 859.972656 620.398438 884.164062 609.722656 907.417969 605.363281 C 911.199219 604.652344 915.050781 605.125 918.847656 605.023438 Z M 391.558594 715.679688 L 413.476562 659.320312 L 413.082031 654.8125 C 390.285156 640.804688 366.019531 628.710938 344.675781 612.496094 C 321.761719 595.089844 299.480469 568.84375 283.898438 544.609375 C 281.660156 541.125 273.398438 522.859375 270.574219 523.492188 C 269.375 523.761719 254.355469 538.957031 253.167969 540.707031 C 252.378906 541.871094 251.234375 542.0625 251.800781 544.171875 C 254.074219 543.941406 255.679688 544.828125 257.417969 546.164062 C 264.203125 551.386719 275.03125 564.238281 280.824219 571.191406 C 318.558594 616.445312 349.546875 668.742188 388.40625 713.929688 C 389.015625 714.636719 389.390625 717.738281 391.558594 715.679688 Z M 370.800781 779.300781 L 385.796875 731.214844 C 386.632812 724.734375 375.527344 719.703125 370.777344 715.03125 C 333.308594 678.132812 286.191406 604.875 254.804688 559.847656 C 252.988281 557.238281 248.90625 546.542969 246.289062 548.339844 C 244.144531 555.292969 224.257812 575.875 226.167969 581.441406 Z M 354.199219 841.546875 L 364.667969 795.910156 C 356.730469 789.550781 348.457031 782.089844 341.792969 774.433594 C 325.078125 755.222656 305.300781 728.148438 289.976562 707.269531 C 263.761719 671.554688 239.941406 632.386719 217.894531 594.003906 C 215.882812 594.003906 202.296875 626.855469 202.003906 630.804688 C 201.882812 632.4375 201.726562 633.960938 202.699219 635.410156 C 254.382812 703.25 298.859375 776.574219 354.195312 841.546875 Z M 936.78125 748.804688 C 942.40625 701.960938 942.316406 655.734375 922.992188 611.960938 C 920.519531 612.550781 921.101562 615.90625 918.796875 618.113281 C 911.816406 624.804688 878.675781 633.667969 867.953125 636.453125 C 817.570312 649.515625 753.480469 654.167969 702.96875 640.296875 C 689.898438 636.707031 677.113281 631.683594 664.996094 625.695312 C 663.464844 629.589844 648.230469 648.457031 650.367188 650.667969 C 672.570312 653.921875 692.589844 665.523438 714.253906 670.507812 C 750.875 678.9375 803.078125 680.691406 840.652344 678.320312 C 865.554688 676.746094 888.660156 667.207031 913.0625 663.554688 C 919.238281 662.632812 935.679688 658.316406 936.550781 668.183594 C 937.175781 675.238281 924.628906 679.222656 919.566406 681.125 C 859.523438 703.695312 786.433594 706.65625 723.429688 695.914062 C 693.09375 690.742188 666.171875 676.835938 637.476562 667.179688 L 618.457031 699.675781 C 635.324219 711.910156 652.339844 717.996094 672.21875 723.582031 C 730.125 739.859375 813.03125 758.914062 872.554688 755.847656 C 894.085938 754.738281 915.265625 748.816406 936.78125 748.800781 Z M 178.4375 801.429688 C 186.433594 774.46875 195.332031 743.691406 208.664062 718.910156 C 210.796875 714.949219 220.8125 701.5625 221.140625 699.472656 C 221.601562 696.542969 209.617188 675.945312 207.269531 670.980469 C 203.683594 663.402344 200.097656 654.609375 197.8125 646.535156 C 195.710938 646.746094 195.679688 648.59375 195.132812 650.066406 C 181.902344 685.75 175.589844 758.34375 177.070312 796.613281 C 177.136719 798.285156 176.027344 801.757812 178.4375 801.433594 Z M 215.804688 942.5 C 223.441406 881.46875 240.121094 819.269531 265.632812 763.402344 L 233.113281 715.691406 C 217.269531 749.75 201.332031 786.539062 192.703125 823.28125 C 182.402344 867.136719 182.652344 885.769531 204.515625 925.460938 L 215.808594 942.5 Z M 615.761719 779.304688 C 616.9375 763.660156 625.132812 750.085938 630.921875 735.933594 C 626.621094 733.207031 609.171875 718.894531 605.617188 719.957031 C 603.75 720.515625 591.003906 741.6875 591.171875 743.800781 C 591.285156 745.171875 603.023438 763.171875 604.945312 765.933594 C 607.960938 770.265625 612.242188 775.285156 615.765625 779.304688 Z M 734.789062 762.714844 L 639.972656 741.929688 L 624.214844 791.097656 L 647.636719 829.085938 L 650.46875 828.246094 L 679.675781 762.25 C 688.839844 750.960938 693.4375 759.425781 691.261719 771.078125 C 686.976562 794.054688 670.03125 821.640625 657.472656 841.167969 C 656.917969 844.988281 673.441406 866.515625 675.988281 871.964844 L 734.792969 762.714844 Z M 769.390625 1032.429688 C 756.589844 1028.085938 750.8125 1008.832031 741.105469 1000.511719 C 737.945312 997.804688 731.1875 996.414062 729.933594 993.695312 C 728.65625 990.914062 729.660156 987.417969 728.515625 984.050781 C 726.9375 979.421875 715.886719 966.789062 712.34375 961.484375 C 672.546875 901.9375 625.4375 837.015625 592.910156 773.800781 C 591.320312 770.710938 585.785156 753.410156 582.582031 755.792969 C 581.601562 756.519531 572.523438 776.320312 572.089844 777.902344 C 571.554688 779.839844 570.976562 781.488281 572.191406 783.371094 C 580.382812 796.160156 590.597656 807.691406 598.90625 820.363281 C 635.351562 875.925781 667.832031 933.195312 701.339844 990.457031 C 713.527344 1011.277344 728.101562 1030.539062 739.664062 1051.746094 C 740.554688 1052.765625 740.605469 1053.253906 742.191406 1053.015625 C 744.039062 1052.734375 770.667969 1034.097656 769.390625 1032.417969 Z M 784.609375 771.015625 L 748.640625 765.476562 C 742.542969 800.523438 720.773438 835.640625 700.5 864.671875 C 698.195312 867.972656 685.460938 882.820312 685.15625 884.019531 C 683.964844 888.664062 709.589844 924.601562 713.34375 931.421875 Z M 932.6875 765.480469 C 909.542969 774.644531 885.378906 775.847656 860.847656 778.039062 C 853.3125 820.242188 834.625 860.765625 814.402344 898.28125 C 797.386719 929.835938 778.007812 961.984375 752.925781 987.738281 C 758.273438 1001.386719 774.371094 1012.425781 774.933594 1028.253906 C 775.832031 1029.296875 786.53125 1020.027344 788.109375 1018.617188 C 800.019531 1007.964844 812.957031 992.84375 823.328125 980.511719 C 876.332031 917.472656 915.003906 846.601562 932.683594 765.480469 Z M 844.117188 777.929688 C 825.972656 778.550781 807.984375 775.285156 790.148438 772.402344 C 789.546875 772.867188 792.328125 774.90625 792.605469 776.148438 C 797.171875 796.625 756.757812 885.90625 745.203125 907.960938 C 738.53125 920.691406 730.882812 933.0625 722.636719 944.828125 L 737.589844 970.164062 L 740.449219 969.308594 C 769.792969 927.882812 795.679688 882.363281 817.636719 836.511719 C 823.234375 824.816406 827.40625 812.292969 832.8125 800.5 C 836.324219 792.839844 841.066406 785.765625 844.121094 777.929688 Z M 309.921875 819.390625 C 311.46875 817.351562 281.167969 783.34375 278.113281 779.304688 C 264.019531 825 243.742188 873.511719 238.136719 921.242188 C 236.878906 931.960938 234.441406 964.128906 237.191406 973.011719 C 239.421875 980.199219 264.871094 1004.785156 271.851562 1010.300781 C 274.316406 1012.246094 278.261719 1012.179688 278.113281 1015.796875 C 280.5625 1016.148438 279.148438 1014.367188 278.867188 1012.984375 C 276.824219 1002.882812 273.257812 994.261719 272.503906 983.359375 C 270.351562 952.207031 285.671875 842.699219 306.476562 820.730469 C 307.488281 819.660156 309.804688 819.527344 309.914062 819.382812 Z M 698.886719 1073.828125 C 701.074219 1075.707031 712.722656 1069.125 715.449219 1067.707031 C 718.105469 1066.324219 729.46875 1060.476562 729.121094 1058.214844 C 700.535156 1020.535156 678.5625 978.699219 653.179688 939.011719 C 626.609375 897.476562 595.734375 858.640625 572.636719 814.808594 L 563.203125 794.53125 C 562.074219 801.113281 552.367188 813.339844 554.054688 819.429688 C 579.636719 853.878906 595.019531 893.695312 615.535156 930.996094 C 630.546875 958.285156 647.519531 986.191406 663.632812 1012.933594 C 675.625 1032.828125 690.96875 1051.980469 698.886719 1073.832031 Z M 319.589844 827.722656 C 319.398438 827.5625 316.542969 827.15625 316.863281 828.53125 C 308.703125 861.035156 299.691406 893.714844 295.128906 927.027344 C 290.945312 957.601562 286.964844 1009.832031 307.117188 1035.539062 C 308.046875 1036.726562 332.507812 1051.578125 333.4375 1050.390625 C 333.410156 1047.292969 332.144531 1044.640625 332.003906 1041.460938 C 330.859375 1015.464844 330.617188 981.414062 333.625 955.820312 C 337.234375 925.0625 347.351562 894.054688 350.191406 862.972656 C 349.867188 856.703125 342.539062 854.292969 338.996094 850.53125 C 332.945312 844.105469 327.066406 837.550781 320.957031 831.140625 C 319.9375 830.066406 319.757812 827.875 319.582031 827.722656 Z M 686.355469 1082.183594 L 685.292969 1078.433594 C 640.761719 1010.941406 594.265625 944.183594 559.269531 871.046875 L 542.445312 842.941406 L 526.046875 886.859375 C 525.222656 891.933594 533.953125 898.746094 537.472656 903.894531 C 554.953125 929.496094 570.78125 961.183594 587.519531 988.039062 C 609.273438 1022.941406 636.128906 1056.46875 651.773438 1094.660156 L 686.351562 1082.1875 Z M 518.878906 913.472656 C 515.753906 912.898438 516.679688 913.632812 515.808594 915.230469 C 513.125 920.125 509.554688 933.023438 507.800781 939.027344 C 506.242188 944.359375 501.457031 957.683594 502.5625 962.207031 C 503.328125 965.328125 514.972656 980.914062 517.75 985.84375 C 524.421875 997.671875 529.910156 1010.546875 536.652344 1022.28125 C 552.226562 1049.386719 570.238281 1075.109375 584.675781 1102.910156 C 586.277344 1105.632812 588.535156 1105.894531 591.476562 1105.785156 C 604.484375 1105.304688 619.238281 1101.226562 632.375 1100.179688 L 566.761719 1001.867188 C 550.136719 972.816406 530.851562 944.941406 518.875 913.472656 Z M 1325.4375 919.277344 C 1324.703125 918.011719 1316.945312 914.042969 1314.667969 915.480469 C 1313.320312 916.335938 1302.882812 932.691406 1299.46875 936.320312 C 1270.636719 966.984375 1191.015625 1022.1875 1151.371094 1034.503906 C 1089.597656 1053.683594 1004.605469 1039.761719 958.953125 991.648438 C 944.199219 976.101562 934.625 954.351562 920.941406 939.730469 C 917.050781 935.574219 905.722656 926.125 900.847656 930.71875 C 891.699219 939.339844 883.90625 960.796875 873.898438 970.207031 C 870.386719 975.941406 880.699219 975.773438 885.621094 977.800781 C 919.496094 991.734375 935.835938 1013.480469 962.488281 1035.140625 C 986.742188 1054.851562 1046.460938 1068.707031 1077.367188 1067.050781 C 1154.394531 1062.914062 1269.539062 1041.222656 1311.085938 968.683594 C 1315.675781 960.660156 1329.769531 926.726562 1325.433594 919.28125 Z M 498.121094 985.386719 C 497.421875 984.679688 494.398438 985.070312 495.394531 987.449219 C 493.128906 1009.789062 485.054688 1033.28125 483.09375 1055.40625 C 481.789062 1070.160156 484.054688 1085.304688 481.675781 1100.050781 C 508.445312 1106.21875 536.074219 1104.621094 563.175781 1107.089844 C 551.425781 1081.429688 534.425781 1058.546875 520.941406 1033.824219 C 513.773438 1020.679688 507.277344 1006.699219 500.664062 993.238281 C 499.773438 991.425781 498.40625 985.683594 498.117188 985.386719 Z M 498.121094 985.386719 " fill-opacity="1" fill-rule="nonzero"/></g></svg>